<mxfile host="app.diagrams.net" modified="2021-11-04T07:02:59.068Z" agent="5.0 (Windows NT 10.0; WOW64) AppleWebKit/537.36 (KHTML, like Gecko) Chrome/93.0.4577.100 Safari/537.36" etag="VEY7QkxD-EF9YLz2KFG-" version="15.6.8" type="github">
  <diagram id="C4OztMn8q3nOHiGEID6p" name="Page-1">
    <mxGraphModel dx="1378" dy="1957" grid="1" gridSize="10" guides="1" tooltips="1" connect="1" arrows="1" fold="1" page="1" pageScale="1" pageWidth="827" pageHeight="1169" math="0" shadow="0">
      <root>
        <mxCell id="0" />
        <mxCell id="1" parent="0" />
        <mxCell id="vx2iBCNRQu0jolygc7Sw-1" value="Actor" style="shape=umlActor;verticalLabelPosition=bottom;verticalAlign=top;html=1;outlineConnect=0;" vertex="1" parent="1">
          <mxGeometry x="80" y="30" width="130" height="130" as="geometry" />
        </mxCell>
        <mxCell id="vx2iBCNRQu0jolygc7Sw-2" value="Actor" style="shape=umlActor;verticalLabelPosition=bottom;verticalAlign=top;html=1;outlineConnect=0;" vertex="1" parent="1">
          <mxGeometry x="80" y="550" width="140" height="130" as="geometry" />
        </mxCell>
        <mxCell id="vx2iBCNRQu0jolygc7Sw-3" value="" style="endArrow=classic;html=1;rounded=0;" edge="1" parent="1">
          <mxGeometry width="50" height="50" relative="1" as="geometry">
            <mxPoint x="150" y="614.5" as="sourcePoint" />
            <mxPoint x="390" y="614.5" as="targetPoint" />
            <Array as="points">
              <mxPoint x="230" y="614.5" />
            </Array>
          </mxGeometry>
        </mxCell>
        <mxCell id="vx2iBCNRQu0jolygc7Sw-7" value="" style="endArrow=classic;html=1;rounded=0;" edge="1" parent="1">
          <mxGeometry width="50" height="50" relative="1" as="geometry">
            <mxPoint x="150" y="94.5" as="sourcePoint" />
            <mxPoint x="390" y="94.5" as="targetPoint" />
            <Array as="points">
              <mxPoint x="230" y="94.5" />
            </Array>
          </mxGeometry>
        </mxCell>
        <mxCell id="vx2iBCNRQu0jolygc7Sw-8" value="" style="whiteSpace=wrap;html=1;aspect=fixed;" vertex="1" parent="1">
          <mxGeometry x="390" y="-105" width="405" height="405" as="geometry" />
        </mxCell>
        <mxCell id="vx2iBCNRQu0jolygc7Sw-10" value="" style="whiteSpace=wrap;html=1;aspect=fixed;" vertex="1" parent="1">
          <mxGeometry x="390" y="410" width="410" height="410" as="geometry" />
        </mxCell>
        <mxCell id="vx2iBCNRQu0jolygc7Sw-11" value="Xem sản phẩm" style="ellipse;whiteSpace=wrap;html=1;" vertex="1" parent="1">
          <mxGeometry x="450" y="-80" width="120" height="80" as="geometry" />
        </mxCell>
        <mxCell id="vx2iBCNRQu0jolygc7Sw-13" value="Đăng ký thành viên" style="ellipse;whiteSpace=wrap;html=1;" vertex="1" parent="1">
          <mxGeometry x="650" y="-80" width="120" height="80" as="geometry" />
        </mxCell>
        <mxCell id="vx2iBCNRQu0jolygc7Sw-15" value="Đăng nhập" style="ellipse;whiteSpace=wrap;html=1;" vertex="1" parent="1">
          <mxGeometry x="450" y="20" width="120" height="80" as="geometry" />
        </mxCell>
        <mxCell id="vx2iBCNRQu0jolygc7Sw-16" value="Bình luận" style="ellipse;whiteSpace=wrap;html=1;" vertex="1" parent="1">
          <mxGeometry x="650" y="20" width="120" height="80" as="geometry" />
        </mxCell>
        <mxCell id="vx2iBCNRQu0jolygc7Sw-17" value="Mua hàng&lt;br&gt;Đặt hàng" style="ellipse;whiteSpace=wrap;html=1;" vertex="1" parent="1">
          <mxGeometry x="450" y="120" width="120" height="80" as="geometry" />
        </mxCell>
        <mxCell id="vx2iBCNRQu0jolygc7Sw-18" value="Tìm kiếm" style="ellipse;whiteSpace=wrap;html=1;" vertex="1" parent="1">
          <mxGeometry x="650" y="120" width="120" height="80" as="geometry" />
        </mxCell>
        <mxCell id="vx2iBCNRQu0jolygc7Sw-19" value="Quản lí tài khoản" style="ellipse;whiteSpace=wrap;html=1;" vertex="1" parent="1">
          <mxGeometry x="450" y="210" width="120" height="80" as="geometry" />
        </mxCell>
        <mxCell id="vx2iBCNRQu0jolygc7Sw-21" value="Xem đơn hàng" style="ellipse;whiteSpace=wrap;html=1;" vertex="1" parent="1">
          <mxGeometry x="650" y="210" width="120" height="80" as="geometry" />
        </mxCell>
        <mxCell id="vx2iBCNRQu0jolygc7Sw-23" value="Quản lí hàng hóa" style="ellipse;whiteSpace=wrap;html=1;" vertex="1" parent="1">
          <mxGeometry x="450" y="430" width="120" height="80" as="geometry" />
        </mxCell>
        <mxCell id="vx2iBCNRQu0jolygc7Sw-24" value="Quản lí khách hàng" style="ellipse;whiteSpace=wrap;html=1;" vertex="1" parent="1">
          <mxGeometry x="650" y="430" width="120" height="80" as="geometry" />
        </mxCell>
        <mxCell id="vx2iBCNRQu0jolygc7Sw-25" value="Quản lí đơn hàng" style="ellipse;whiteSpace=wrap;html=1;" vertex="1" parent="1">
          <mxGeometry x="450" y="560" width="120" height="80" as="geometry" />
        </mxCell>
        <mxCell id="vx2iBCNRQu0jolygc7Sw-26" value="Tổng hợp thống kê" style="ellipse;whiteSpace=wrap;html=1;" vertex="1" parent="1">
          <mxGeometry x="650" y="560" width="120" height="80" as="geometry" />
        </mxCell>
        <mxCell id="vx2iBCNRQu0jolygc7Sw-27" value="Quản lí bình luận&lt;span style=&quot;color: rgba(0 , 0 , 0 , 0) ; font-family: monospace ; font-size: 0px&quot;&gt;%3CmxGraphModel%3E%3Croot%3E%3CmxCell%20id%3D%220%22%2F%3E%3CmxCell%20id%3D%221%22%20parent%3D%220%22%2F%3E%3CmxCell%20id%3D%222%22%20value%3D%22Qu%E1%BA%A3n%20l%C3%AD%20%C4%91%C6%A1n%20h%C3%A0ng%22%20style%3D%22ellipse%3BwhiteSpace%3Dwrap%3Bhtml%3D1%3B%22%20vertex%3D%221%22%20parent%3D%221%22%3E%3CmxGeometry%20x%3D%22450%22%20y%3D%22530%22%20width%3D%22120%22%20height%3D%2280%22%20as%3D%22geometry%22%2F%3E%3C%2FmxCell%3E%3C%2Froot%3E%3C%2FmxGraphModel%3E&lt;/span&gt;" style="ellipse;whiteSpace=wrap;html=1;" vertex="1" parent="1">
          <mxGeometry x="450" y="680" width="120" height="80" as="geometry" />
        </mxCell>
        <mxCell id="vx2iBCNRQu0jolygc7Sw-28" value="Tổng hợp&amp;nbsp;&lt;br&gt;thống kê" style="ellipse;whiteSpace=wrap;html=1;" vertex="1" parent="1">
          <mxGeometry x="650" y="680" width="120" height="80" as="geometry" />
        </mxCell>
      </root>
    </mxGraphModel>
  </diagram>
</mxfile>
